<svg id="visual" viewBox="0 0 675 900" width="675" height="900" xmlns="http://www.w3.org/2000/svg" xmlns:xlink="http://www.w3.org/1999/xlink" version="1.1"><rect x="0" y="0" width="675" height="900" fill="#fdfdfd"/><defs><linearGradient id="grad1_0" x1="0%" y1="0%" x2="100%" y2="100%"><stop offset="30%" stop-color="#d2e8f9" stop-opacity="1"/><stop offset="70%" stop-color="#d2e8f9" stop-opacity="1"/></linearGradient></defs><defs><linearGradient id="grad1_1" x1="0%" y1="0%" x2="100%" y2="100%"><stop offset="30%" stop-color="#d2e8f9" stop-opacity="1"/><stop offset="70%" stop-color="#e8f2fb" stop-opacity="1"/></linearGradient></defs><defs><linearGradient id="grad1_2" x1="0%" y1="0%" x2="100%" y2="100%"><stop offset="30%" stop-color="#fdfdfd" stop-opacity="1"/><stop offset="70%" stop-color="#e8f2fb" stop-opacity="1"/></linearGradient></defs><defs><linearGradient id="grad2_0" x1="0%" y1="0%" x2="100%" y2="100%"><stop offset="30%" stop-color="#d2e8f9" stop-opacity="1"/><stop offset="70%" stop-color="#d2e8f9" stop-opacity="1"/></linearGradient></defs><defs><linearGradient id="grad2_1" x1="0%" y1="0%" x2="100%" y2="100%"><stop offset="30%" stop-color="#e8f2fb" stop-opacity="1"/><stop offset="70%" stop-color="#d2e8f9" stop-opacity="1"/></linearGradient></defs><defs><linearGradient id="grad2_2" x1="0%" y1="0%" x2="100%" y2="100%"><stop offset="30%" stop-color="#e8f2fb" stop-opacity="1"/><stop offset="70%" stop-color="#fdfdfd" stop-opacity="1"/></linearGradient></defs><g transform="translate(675, 0)"><path d="M0 506.3C-53.7 502.5 -107.4 498.8 -156.4 481.5C-205.5 464.1 -249.8 433.2 -290.4 399.7C-330.9 366.1 -367.7 330 -397.2 288.6C-426.8 247.2 -449.1 200.4 -466 151.4C-483 102.4 -494.6 51.2 -506.2 0L0 0Z" fill="#f2f8fc"/><path d="M0 337.5C-35.8 335 -71.6 332.5 -104.3 321C-137 309.4 -166.5 288.8 -193.6 266.4C-220.6 244.1 -245.1 220 -264.8 192.4C-284.5 164.8 -299.4 133.6 -310.7 100.9C-322 68.3 -329.7 34.1 -337.5 0L0 0Z" fill="#ddedfa"/><path d="M0 168.8C-17.9 167.5 -35.8 166.3 -52.1 160.5C-68.5 154.7 -83.3 144.4 -96.8 133.2C-110.3 122 -122.6 110 -132.4 96.2C-142.3 82.4 -149.7 66.8 -155.3 50.5C-161 34.1 -164.9 17.1 -168.7 0L0 0Z" fill="#d2e8f9"/></g><g transform="translate(0, 900)"><path d="M0 -506.2C47.2 -480.2 94.4 -454.2 142.5 -438.4C190.5 -422.6 239.3 -417 288.6 -397.2C337.9 -377.4 387.5 -343.5 409.6 -297.6C431.6 -251.6 426 -193.7 437.5 -142.1C449 -90.6 477.6 -45.3 506.3 0L0 0Z" fill="#f2f8fc"/><path d="M0 -337.5C31.5 -320.2 62.9 -302.8 95 -292.3C127 -281.8 159.6 -278 192.4 -264.8C225.2 -251.6 258.4 -229 273 -198.4C287.7 -167.8 284 -129.2 291.7 -94.8C299.3 -60.4 318.4 -30.2 337.5 0L0 0Z" fill="#ddedfa"/><path d="M0 -168.7C15.7 -160.1 31.5 -151.4 47.5 -146.1C63.5 -140.9 79.8 -139 96.2 -132.4C112.6 -125.8 129.2 -114.5 136.5 -99.2C143.9 -83.9 142 -64.6 145.8 -47.4C149.7 -30.2 159.2 -15.1 168.8 0L0 0Z" fill="#d2e8f9"/></g></svg>