<svg id="visual" viewBox="0 0 900 600" width="900" height="600" xmlns="http://www.w3.org/2000/svg" xmlns:xlink="http://www.w3.org/1999/xlink" version="1.1"><rect x="0" y="0" width="900" height="600" fill="#ffffff"></rect><g fill="none" stroke="#f9f9f9" stroke-width="2"><circle r="53" cx="247" cy="224"></circle><circle r="12" cx="722" cy="169"></circle><circle r="22" cx="453" cy="82"></circle><circle r="51" cx="337" cy="110"></circle><circle r="51" cx="491" cy="464"></circle><circle r="16" cx="529" cy="337"></circle><circle r="50" cx="531" cy="577"></circle><circle r="49" cx="742" cy="484"></circle><circle r="35" cx="372" cy="353"></circle><circle r="11" cx="90" cy="511"></circle><circle r="45" cx="133" cy="350"></circle><circle r="36" cx="82" cy="40"></circle><circle r="23" cx="865" cy="503"></circle><circle r="13" cx="540" cy="157"></circle><circle r="40" cx="750" cy="332"></circle><circle r="44" cx="89" cy="222"></circle><circle r="40" cx="709" cy="12"></circle><circle r="40" cx="281" cy="433"></circle><circle r="33" cx="653" cy="571"></circle><circle r="12" cx="206" cy="92"></circle><circle r="51" cx="861" cy="298"></circle><circle r="13" cx="649" cy="261"></circle><circle r="47" cx="848" cy="40"></circle><circle r="38" cx="384" cy="579"></circle><circle r="41" cx="894" cy="143"></circle><circle r="26" cx="11" cy="389"></circle><circle r="32" cx="648" cy="408"></circle><circle r="48" cx="441" cy="204"></circle><circle r="13" cx="182" cy="588"></circle><circle r="44" cx="564" cy="44"></circle><circle r="13" cx="1" cy="135"></circle><circle r="26" cx="282" cy="15"></circle><circle r="43" cx="19" cy="598"></circle></g></svg>